<svg viewBox="0 0 59 59" xmlns="http://www.w3.org/2000/svg" xmlns:xlink="http://www.w3.org/1999/xlink" width="59.000000" height="59.000000" fill="none" customFrame="#000000">
	<defs>
		<clipPath id="clipPath_1">
			<rect width="19.835608" height="19.835606" x="0.000000" y="0.000000" fill="rgb(255,255,255)" transform="matrix(0.965926,0.258819,-0.258819,0.965926,22.7402,17.6066)" />
		</clipPath>
	</defs>
	<g id="Group 58">
		<g id="Group 47">
			<rect id="Rectangle 34" width="48.173298" height="48.173298" x="0.000000" y="0.000000" rx="10.000000" fill="rgb(251,199,94)" transform="matrix(0.965926,0.258819,-0.258819,0.965926,12.4688,0)" />
		</g>
		<g id="mdi:users" clip-path="url(#clipPath_1)" customFrame="url(#clipPath_1)">
			<rect id="mdi:users" width="19.835608" height="19.835606" x="0.000000" y="0.000000" fill="rgb(255,255,255)" fill-opacity="0" transform="matrix(0.965926,0.258819,-0.258819,0.965926,22.7402,17.6066)" />
			<path id="Vector" d="M11.5708 10.7443L11.5708 12.3973L0 12.3973L0 10.7443C0 10.7443 0 7.4384 5.78538 7.4384C11.5708 7.4384 11.5708 10.7443 11.5708 10.7443ZM8.67808 2.89274C8.67808 2.32062 8.50842 1.76134 8.19057 1.28564C7.87272 0.809941 7.42094 0.439178 6.89237 0.220237C6.3638 0.00129564 5.78218 -0.0559893 5.22105 0.0556259C4.65992 0.167241 4.14449 0.442743 3.73994 0.847294C3.33539 1.25184 3.05989 1.76727 2.94827 2.3284C2.83666 2.88953 2.89394 3.47115 3.11289 3.99972C3.33183 4.52829 3.70259 4.98007 4.17829 5.29792C4.65399 5.61578 5.21326 5.78543 5.78538 5.78543C6.55257 5.78543 7.28834 5.48066 7.83083 4.93818C8.37331 4.39569 8.67808 3.65993 8.67808 2.89274ZM11.5212 7.4384C12.0293 7.83159 12.445 8.33136 12.7391 8.90252C13.0333 9.47368 13.1987 10.1024 13.2237 10.7443L13.2237 12.3973L16.5297 12.3973L16.5297 10.7443C16.5297 10.7443 16.5297 7.74419 11.5212 7.4384ZM10.7443 4.34557e-05C10.1754 -0.00312422 9.61904 0.166956 9.14917 0.487669C9.65121 1.18914 9.92115 2.03012 9.92115 2.89274C9.92115 3.75535 9.65121 4.59634 9.14917 5.2978C9.61904 5.61852 10.1754 5.7886 10.7443 5.78543C11.5115 5.78543 12.2472 5.48066 12.7897 4.93818C13.3322 4.39569 13.637 3.65993 13.637 2.89274C13.637 2.12555 13.3322 1.38978 12.7897 0.847294C12.2472 0.304809 11.5115 4.34557e-05 10.7443 4.34557e-05Z" fill="rgb(250.75,250.75,250.75)" fill-rule="nonzero" transform="matrix(0.965926,0.258819,-0.258819,0.965926,23.4805,21.2277)" />
		</g>
	</g>
</svg>
