<svg viewBox="0 0 26 26" xmlns="http://www.w3.org/2000/svg" xmlns:xlink="http://www.w3.org/1999/xlink" width="26.000000" height="26.000000" fill="none">
	<rect id="Property 1=Hover" width="26.000000" height="26.000000" x="0.000000" y="0.000000" fill="rgb(255,255,255)" fill-opacity="0" />
	<path id="Vector" d="M22.5766 4.99416C22.0233 4.44058 21.3663 4.00144 20.6433 3.70183C19.9202 3.40223 19.1452 3.24802 18.3625 3.24802C17.5798 3.24802 16.8047 3.40223 16.0817 3.70183C15.3586 4.00144 14.7016 4.44058 14.1483 4.99416L13 6.14249L11.8516 4.99416C10.734 3.87649 9.21809 3.2486 7.63747 3.2486C6.05685 3.2486 4.54097 3.87649 3.4233 4.99416C2.30563 6.11183 1.67773 7.62771 1.67773 9.20833C1.67773 10.7889 2.30563 12.3048 3.4233 13.4225L4.57163 14.5708L13 22.9992L21.4283 14.5708L22.5766 13.4225C23.1302 12.8692 23.5693 12.2122 23.869 11.4891C24.1686 10.766 24.3228 9.99102 24.3228 9.20833C24.3228 8.42563 24.1686 7.65061 23.869 6.92753C23.5693 6.20444 23.1302 5.54748 22.5766 4.99416Z" fill="rgb(252,131,44)" fill-rule="nonzero" />
	<path id="Vector" d="M20.6433 3.70183C19.9202 3.40223 19.1452 3.24802 18.3625 3.24802C17.5798 3.24802 16.8047 3.40223 16.0817 3.70183C15.3586 4.00144 14.7016 4.44058 14.1483 4.99416L13 6.14249L11.8516 4.99416C10.734 3.87649 9.21809 3.2486 7.63747 3.2486C6.05685 3.2486 4.54097 3.87649 3.4233 4.99416C2.30563 6.11183 1.67773 7.62771 1.67773 9.20833C1.67773 10.7889 2.30563 12.3048 3.4233 13.4225L4.57163 14.5708L13 22.9992L21.4283 14.5708L22.5766 13.4225C23.1302 12.8692 23.5693 12.2122 23.869 11.4891C24.1686 10.766 24.3228 9.99102 24.3228 9.20833C24.3228 8.42563 24.1686 7.65061 23.869 6.92753C23.5693 6.20444 23.1302 5.54748 22.5766 4.99416C22.0233 4.44058 21.3663 4.00144 20.6433 3.70183Z" fill-rule="nonzero" stroke="rgb(252,131,44)" stroke-linecap="round" stroke-linejoin="round" stroke-width="2.000000" />
</svg>
