<svg viewBox="0 0 16 16" xmlns="http://www.w3.org/2000/svg" xmlns:xlink="http://www.w3.org/1999/xlink" width="16.000000" height="16.000000" fill="none">
	<rect id="icon/star" width="16.000000" height="16.000000" x="0.000000" y="0.000000" />
	<path id="Star 2" d="M7.55778 0.838169C7.74538 0.482595 8.25462 0.482596 8.44222 0.838169L10.3305 4.41705C10.4028 4.55417 10.5347 4.64997 10.6874 4.67641L14.6747 5.36629C15.0708 5.43484 15.2282 5.91915 14.948 6.20745L12.1277 9.10921C12.0197 9.22039 11.9693 9.3754 11.9914 9.52886L12.5674 13.5341C12.6246 13.932 12.2126 14.2314 11.8519 14.054L8.22062 12.2685C8.0815 12.2001 7.9185 12.2001 7.77938 12.2685L4.14815 14.054C3.78737 14.2314 3.37539 13.932 3.43262 13.5341L4.00861 9.52886C4.03068 9.3754 3.98031 9.22039 3.87226 9.10921L1.05204 6.20745C0.771841 5.91915 0.929206 5.43484 1.32535 5.36629L5.31256 4.67641C5.46533 4.64997 5.59719 4.55417 5.66954 4.41705L7.55778 0.838169Z" fill="rgb(255,197,49)" fill-rule="nonzero" />
	<path id="Star 2" d="M1.05204 6.20745L0.191506 7.0438L1.05204 6.20745ZM4.00861 9.52886L5.19639 9.69967L4.00861 9.52886ZM3.87226 9.10921L3.01172 9.94556L3.87226 9.10921ZM4.14815 14.054L3.61865 12.9771L4.14815 14.054ZM3.43262 13.5341L2.24483 13.3633L3.43262 13.5341ZM8.22062 12.2685L8.75012 11.1916L8.22062 12.2685ZM7.77938 12.2685L7.24988 11.1916L7.77938 12.2685ZM12.5674 13.5341L11.3796 13.7049L12.5674 13.5341ZM12.1277 9.10921L12.9883 9.94556L12.1277 9.10921ZM11.9914 9.52886L13.1792 9.35805L11.9914 9.52886ZM14.6747 5.36629L14.4701 6.54872L14.6747 5.36629ZM14.948 6.20745L14.0874 5.3711L14.948 6.20745ZM10.3305 4.41705L11.3918 3.85708L10.3305 4.41705ZM8.44222 0.838169L7.38089 1.39814L8.44222 0.838169ZM7.55778 0.838169L6.49644 0.2782L7.55778 0.838169ZM7.38089 1.39814L9.26912 4.97701L11.3918 3.85708L9.50356 0.278201L7.38089 1.39814ZM10.4828 5.85884L14.4701 6.54872L14.8792 4.18386L10.892 3.49397L10.4828 5.85884ZM14.0874 5.3711L11.2672 8.27286L12.9883 9.94556L15.8085 7.0438L14.0874 5.3711ZM10.8036 9.69967L11.3796 13.7049L13.7552 13.3633L13.1792 9.35805L10.8036 9.69967ZM12.3814 12.9771L8.75012 11.1916L7.69113 13.3453L11.3224 15.1308L12.3814 12.9771ZM7.24988 11.1916L3.61865 12.9771L4.67765 15.1308L8.30887 13.3453L7.24988 11.1916ZM4.6204 13.7049L5.19639 9.69967L2.82083 9.35805L2.24483 13.3633L4.6204 13.7049ZM4.73279 8.27286L1.91257 5.3711L0.191506 7.0438L3.01172 9.94556L4.73279 8.27286ZM1.52994 6.54872L5.51715 5.85884L5.10797 3.49397L1.12076 4.18386L1.52994 6.54872ZM6.73088 4.97701L8.61911 1.39814L6.49644 0.2782L4.6082 3.85708L6.73088 4.97701ZM5.51715 5.85884C6.03656 5.76897 6.4849 5.44323 6.73088 4.97701L4.6082 3.85708C4.70949 3.66511 4.89409 3.53098 5.10797 3.49397L5.51715 5.85884ZM1.91257 5.3711C2.30485 5.77472 2.08453 6.45276 1.52994 6.54872L1.12076 4.18386C-0.226123 4.41691 -0.761169 6.06358 0.191506 7.0438L1.91257 5.3711ZM5.19639 9.69967C5.27142 9.17791 5.10017 8.65086 4.73279 8.27286L3.01172 9.94556C2.86045 9.78991 2.78993 9.57289 2.82083 9.35805L5.19639 9.69967ZM3.61865 12.9771C4.12374 12.7288 4.70051 13.1478 4.6204 13.7049L2.24483 13.3633C2.05026 14.7163 3.45101 15.734 4.67765 15.1308L3.61865 12.9771ZM8.75012 11.1916C8.27709 10.959 7.72291 10.959 7.24988 11.1916L8.30887 13.3453C8.11409 13.4411 7.88591 13.4411 7.69113 13.3453L8.75012 11.1916ZM11.3796 13.7049C11.2995 13.1478 11.8763 12.7288 12.3814 12.9771L11.3224 15.1308C12.549 15.734 13.9497 14.7163 13.7552 13.3633L11.3796 13.7049ZM11.2672 8.27286C10.8998 8.65087 10.7286 9.17792 10.8036 9.69967L13.1792 9.35805C13.2101 9.57289 13.1396 9.78991 12.9883 9.94556L11.2672 8.27286ZM14.4701 6.54872C13.9155 6.45276 13.6952 5.77472 14.0874 5.3711L15.8085 7.0438C16.7612 6.06359 16.2261 4.41691 14.8792 4.18386L14.4701 6.54872ZM9.26912 4.97701C9.5151 5.44323 9.96344 5.76897 10.4828 5.85884L10.892 3.49397C11.1059 3.53098 11.2905 3.66511 11.3918 3.85708L9.26912 4.97701ZM9.50356 0.278201C8.86571 -0.930744 7.13429 -0.930753 6.49644 0.2782L8.61911 1.39814C8.35647 1.89594 7.64353 1.89594 7.38089 1.39814L9.50356 0.278201Z" fill="rgb(255,197,49)" fill-rule="nonzero" />
</svg>
